<svg xmlns="http://www.w3.org/2000/svg" width="360" height="88" viewBox="0 0 360 88" fill="none" role="img" aria-label="萝卜头">
  <defs>
    <linearGradient id="carrotBody" x1="36" y1="28" x2="58" y2="72" gradientUnits="userSpaceOnUse">
      <stop stop-color="#FFC466"/>
      <stop offset="1" stop-color="#FF7040"/>
    </linearGradient>
    <linearGradient id="leaf" x1="38" y1="9" x2="59" y2="33" gradientUnits="userSpaceOnUse">
      <stop stop-color="#9DF06D"/>
      <stop offset="1" stop-color="#2FC879"/>
    </linearGradient>
    <filter id="softShadow" x="0" y="0" width="94" height="94" filterUnits="userSpaceOnUse" color-interpolation-filters="sRGB">
      <feDropShadow dx="0" dy="8" stdDeviation="8" flood-color="#000000" flood-opacity="0.25"/>
    </filter>
  </defs>

  <g filter="url(#softShadow)">
    <rect x="8" y="8" width="72" height="72" rx="22" fill="#2B2118"/>
    <path d="M59 25c-4.7-1.6-9.6-1-14 1.4 1.1-5.6 5.1-10.8 10.6-13.4 4.4 3.3 5.8 7.3 3.4 12Z" fill="url(#leaf)"/>
    <path d="M43.5 26.6C39 22 36.8 16 37.6 10c6.7.8 11.4 4.7 14 11.5-2.5 1.1-5.3 2.8-8.1 5.1Z" fill="#58D47A"/>
    <path d="M37.3 28.4c-5.6-1.8-9.7-5.8-12.4-12 6.5-1.5 12.5.1 17 4.8-.9 2.4-2.4 4.8-4.6 7.2Z" fill="#8EEB65"/>
    <path d="M26.5 32.6c7.9-7.9 23.4-9.8 34.3-4.2 2.5 18.9-4.8 37.3-18.1 45.6-13.9-8.4-20.5-25.1-16.2-41.4Z" fill="url(#carrotBody)"/>
    <path d="M30.4 37.4c6.6-5.3 18.7-7 27.2-3.6" stroke="#FFE0B7" stroke-width="3.2" stroke-linecap="round"/>
    <circle cx="37" cy="48" r="3.4" fill="#2B2118"/>
    <circle cx="52" cy="48" r="3.4" fill="#2B2118"/>
    <path d="M38.8 58c3.4 3.3 8.1 3.3 11.5 0" stroke="#2B2118" stroke-width="3" stroke-linecap="round"/>
    <circle cx="32.5" cy="55" r="3.6" fill="#FFAAA3" opacity=".75"/>
    <circle cx="56.8" cy="55" r="3.6" fill="#FFAAA3" opacity=".75"/>
  </g>

  <text x="104" y="55" font-family="Inter, Arial, 'PingFang SC', 'Hiragino Sans GB', 'Microsoft YaHei', sans-serif" font-size="34" font-weight="800" letter-spacing="0" fill="#FFF8EF">萝卜头</text>
  <text x="106" y="74" font-family="Inter, Arial, sans-serif" font-size="12" font-weight="700" letter-spacing="2.8" fill="#FFC466">AI WORKMATE</text>
</svg>
