<svg xmlns="http://www.w3.org/2000/svg" width="1024" height="1024" viewBox="0 0 1024 1024" fill="none" role="img" aria-label="萝卜头图标">
  <defs>
    <linearGradient id="bg" x1="164" y1="124" x2="860" y2="900" gradientUnits="userSpaceOnUse">
      <stop stop-color="#FFF7ED"/>
      <stop offset="1" stop-color="#FFE3C2"/>
    </linearGradient>
    <linearGradient id="carrotBody" x1="402" y1="320" x2="622" y2="842" gradientUnits="userSpaceOnUse">
      <stop stop-color="#FFB84F"/>
      <stop offset="1" stop-color="#FF6A2A"/>
    </linearGradient>
    <linearGradient id="leaf" x1="382" y1="104" x2="650" y2="348" gradientUnits="userSpaceOnUse">
      <stop stop-color="#A8F06A"/>
      <stop offset="1" stop-color="#20B86B"/>
    </linearGradient>
    <filter id="shadow" x="142" y="104" width="740" height="820" filterUnits="userSpaceOnUse" color-interpolation-filters="sRGB">
      <feDropShadow dx="0" dy="34" stdDeviation="34" flood-color="#C95016" flood-opacity="0.2"/>
    </filter>
  </defs>

  <rect width="1024" height="1024" rx="232" fill="url(#bg)"/>
  <circle cx="804" cy="220" r="54" fill="#FFFFFF" opacity=".75"/>
  <circle cx="194" cy="744" r="38" fill="#FFFFFF" opacity=".7"/>
  <path d="M772 690c28 20 54 23 78 8-15 27-38 42-70 42-14-12-17-29-8-50Z" fill="#2FC879" opacity=".55"/>

  <g filter="url(#shadow)">
    <path d="M646 298c-58-20-117-12-170 18 14-74 62-138 132-172 58 42 75 95 38 154Z" fill="url(#leaf)"/>
    <path d="M460 318c-60-58-89-132-78-220 86 9 147 60 184 148-34 14-70 38-106 72Z" fill="#50CE72"/>
    <path d="M378 342c-76-22-131-74-166-154 82-20 157 0 216 60-12 34-29 65-50 94Z" fill="#89E85E"/>
    <path d="M248 394c104-112 302-136 448-54 28 242-66 474-236 578-176-108-260-319-212-524Z" fill="url(#carrotBody)"/>
    <path d="M294 452c86-74 244-94 354-43" stroke="#FFD59B" stroke-width="34" stroke-linecap="round"/>
    <circle cx="397" cy="574" r="38" fill="#2B2118"/>
    <circle cx="588" cy="574" r="38" fill="#2B2118"/>
    <circle cx="410" cy="560" r="10" fill="#FFFFFF"/>
    <circle cx="601" cy="560" r="10" fill="#FFFFFF"/>
    <path d="M416 704c58 54 139 54 195 0" stroke="#2B2118" stroke-width="36" stroke-linecap="round"/>
    <circle cx="330" cy="666" r="42" fill="#FF9C98" opacity=".72"/>
    <circle cx="694" cy="666" r="42" fill="#FF9C98" opacity=".72"/>
  </g>
</svg>
