<svg xmlns="http://www.w3.org/2000/svg" width="175" height="235" viewBox="0 0 175 235" fill="none" role="img" aria-label="萝卜头在线头像">
  <defs>
    <linearGradient id="body" x1="67" y1="78" x2="112" y2="204" gradientUnits="userSpaceOnUse">
      <stop stop-color="#FFB84F"/>
      <stop offset="1" stop-color="#FF6A2A"/>
    </linearGradient>
    <linearGradient id="leaf" x1="56" y1="14" x2="127" y2="82" gradientUnits="userSpaceOnUse">
      <stop stop-color="#A8F06A"/>
      <stop offset="1" stop-color="#20B86B"/>
    </linearGradient>
    <filter id="shadow" x="8" y="0" width="160" height="235" filterUnits="userSpaceOnUse" color-interpolation-filters="sRGB">
      <feDropShadow dx="0" dy="12" stdDeviation="10" flood-color="#C95016" flood-opacity=".22"/>
    </filter>
  </defs>

  <ellipse cx="87.5" cy="215" rx="48" ry="13" fill="#2B2118" opacity=".1"/>
  <g filter="url(#shadow)">
    <path d="M113.8 64.8c-15.5-5.8-31.3-3.9-45.8 5.2 3.4-21.2 16.5-39.8 35.5-49.6 15.4 11.4 19.4 26.8 10.3 44.4Z" fill="url(#leaf)"/>
    <path d="M65.8 72.4C49 57.4 40.3 38.2 42.6 15c23.2 2.2 40.2 15.5 51 39.8-9.3 4-18.6 9.9-27.8 17.6Z" fill="#50CE72"/>
    <path d="M43.2 79.3C23.8 73.3 9.7 59.2 1 37.3c22.2-5.5 42.3-.5 57.6 14.4-3.4 10-8.5 19.2-15.4 27.6Z" fill="#89E85E"/>

    <path d="M30.7 87.4c27.9-30.2 81.7-35.6 121.4-12.2 6.6 66.3-19.5 130.2-64 156.8C42.5 203.8 20.2 146.8 30.7 87.4Z" fill="url(#body)"/>
    <path d="M43.2 103.5c24.2-20.1 66.9-24.6 95.4-9.8" stroke="#FFD59B" stroke-width="8" stroke-linecap="round"/>
    <circle cx="69.8" cy="137.3" r="8.1" fill="#2B2118"/>
    <circle cx="111.3" cy="137.3" r="8.1" fill="#2B2118"/>
    <circle cx="72.6" cy="134.3" r="2.2" fill="#FFFFFF"/>
    <circle cx="114.1" cy="134.3" r="2.2" fill="#FFFFFF"/>
    <path d="M74.8 166.1c12.5 12.1 31.2 12.1 43.7 0" stroke="#2B2118" stroke-width="8" stroke-linecap="round"/>
    <circle cx="53.3" cy="155.9" r="9.1" fill="#FF9C98" opacity=".76"/>
    <circle cx="130.5" cy="155.9" r="9.1" fill="#FF9C98" opacity=".76"/>
  </g>

  <circle cx="147" cy="47" r="15" fill="#FFFFFF"/>
  <circle cx="147" cy="47" r="8" fill="#35D07F"/>
  <path d="M132 28c8-8 20-9 29-2" stroke="#35D07F" stroke-width="5" stroke-linecap="round" opacity=".35"/>
</svg>
